<svg xmlns:xlink="http://www.w3.org/1999/xlink" class="group-hover:animate-pulse" width="40" height="37" viewBox="0 0 40 37" fill="none" xmlns="http://www.w3.org/2000/svg">
                                            <path d="M37.1698 0.216053L17.4261 7.48348L2.0095 13.1576C0.39086 13.7536 0.0615323 14.7229 0.0090888 15.2473C-0.0433547 15.7727 0.0886429 16.7873 1.55662 17.6909L11.9849 24.1081V34.2528C11.9849 35.939 12.6284 36.5243 13.1684 36.7181C13.3102 36.7692 13.4742 36.8039 13.6591 36.8039C14.1782 36.8039 14.859 36.5296 15.6506 35.5697L20.6878 29.464L26.1971 32.8537C26.5824 33.0906 27.0077 33.2128 27.4277 33.2128C27.6646 33.2128 27.9002 33.1732 28.1241 33.095C28.7455 32.8764 29.2397 32.3679 29.4779 31.7008L33.9903 19.0659L39.7946 2.81467C40.2666 1.49381 39.8191 0.783598 39.5102 0.477826C39.2008 0.172053 38.4884 -0.269272 37.1698 0.216053ZM1.51128 15.3976C1.53395 15.1727 1.8135 14.8385 2.53127 14.5745L17.9483 8.90034L36.9827 1.8938L12.6666 22.7548L2.34816 16.4055C1.6975 16.0047 1.48951 15.622 1.51128 15.3976ZM14.4871 34.6097C14.0804 35.1017 13.7924 35.2581 13.6835 35.287C13.6182 35.195 13.4951 34.8914 13.4951 34.2532V25.0378L16.4946 26.8836C16.495 26.884 16.4955 26.884 16.4959 26.884L19.3905 28.6658L14.4871 34.6097ZM28.0561 31.1928C27.9704 31.4324 27.817 31.6026 27.6237 31.6702C27.4291 31.7373 27.2051 31.7004 26.9882 31.5684L17.2879 25.5992C17.2875 25.5983 17.2866 25.5983 17.2861 25.5974L14.0164 23.5859L38.1755 2.85867L32.5681 18.5588L28.0561 31.1928Z" fill="#FF0081"></path>
                                        </svg>