<svg xmlns:xlink="http://www.w3.org/1999/xlink" width="40" height="40" viewBox="0 0 40 40" fill="none" xmlns="http://www.w3.org/2000/svg">
                                            <path d="M32.4001 40.0001C33.6667 40.0001 34.6667 39.0001 34.6667 37.7334V24.9334C34.6667 23.6667 33.6667 22.6667 32.4001 22.6667H24.9334C23.6667 22.6667 22.6667 23.6667 22.6667 24.9334V37.7334C22.6667 39.0001 23.6667 40.0001 24.9334 40.0001H32.4001ZM24.9334 24.0001H32.4001C32.9334 24.0001 33.3334 24.4001 33.3334 24.9334V36.0001H24.0001V24.9334C24.0001 24.4001 24.4001 24.0001 24.9334 24.0001ZM24.0001 37.7334V37.3334H33.3334V37.7334C33.3334 38.2667 32.9334 38.6667 32.4001 38.6667H24.9334C24.4001 38.6667 24.0001 38.2667 24.0001 37.7334Z" fill="#FF0081"></path>
                                            <path d="M37.3333 10C33.7333 3.8 27.1333 0 20 0C12.8667 0 6.26667 3.8 2.66667 10C0.933333 13 0 16.4667 0 20C0 23.5333 0.933333 27 2.66667 30C6.2 36.2 12.8667 40 20 40C20.0667 40 20.2 40 20.2667 39.9333C20.2667 39.9333 20.2667 39.9333 20.3333 39.8667C20.3333 39.8667 20.4 39.8667 20.4 39.8L20.4667 39.7333L20.5333 39.6667C20.5333 39.6 20.6 39.6 20.6 39.5333C20.6 39.5333 20.6 39.5333 20.6 39.4667C20.6 39.4 20.6 39.3333 20.6 39.2667V29.6667V20.6667H29.6H39.3333C39.7333 20.6667 40 20.4 40 20C40 16.4667 39.0667 13 37.3333 10ZM19.2667 37.8667C19.1333 37.8 19.0667 37.6667 18.9333 37.6C18.6667 37.4 18.4667 37.1333 18.2 36.9333C18.0667 36.8 17.9333 36.6667 17.8 36.5333C17.6 36.3333 17.4 36.1333 17.2 35.8667C17.0667 35.7333 16.9333 35.6 16.8 35.4C16.6 35.2 16.4 34.9333 16.2667 34.7333C16.1333 34.6 16 34.4 15.8667 34.2667C15.6667 34.0667 15.5333 33.8 15.3333 33.6C15.2 33.4667 15.1333 33.2667 15 33.1333C14.8667 32.8667 14.6667 32.6667 14.5333 32.4C14.4667 32.2667 14.3333 32.0667 14.2667 31.9333C14.1333 31.6667 13.9333 31.4 13.8 31.0667C13.7333 30.9333 13.6667 30.8 13.6 30.6667C13.5333 30.5333 13.4667 30.4 13.4 30.3333H19.3333L19.2667 37.8667C19.3333 37.9333 19.2667 37.9333 19.2667 37.8667ZM3.66667 29C2.26667 26.4667 1.46667 23.6 1.33333 20.6667H9.66667C9.73333 23.5333 10.3333 26.3333 11.3333 29H3.66667ZM3.66667 11H11.3333C10.2667 13.6667 9.73333 16.4667 9.66667 19.3333H1.33333C1.46667 16.4 2.26667 13.5333 3.66667 11ZM20.7333 2.13333C20.8667 2.2 20.9333 2.33333 21.0667 2.4C21.3333 2.6 21.5333 2.86667 21.8 3.06667C21.9333 3.2 22.0667 3.33333 22.2 3.46667C22.4 3.66667 22.6 3.86667 22.8 4.13333C22.9333 4.26667 23.0667 4.4 23.2 4.6C23.4 4.8 23.6 5.06667 23.7333 5.26667C23.8667 5.4 24 5.6 24.1333 5.73333C24.3333 5.93333 24.4667 6.2 24.6667 6.4C24.8 6.53333 24.8667 6.73333 25 6.86667C25.1333 7.13333 25.3333 7.33333 25.4667 7.6C25.5333 7.73333 25.6667 7.93333 25.7333 8.06667C25.8667 8.33333 26.0667 8.6 26.2 8.93333C26.2667 9.06667 26.3333 9.2 26.4 9.33333C26.4667 9.46667 26.5333 9.6 26.6 9.66667H20.6667L20.7333 2.13333C20.6667 2.06667 20.7333 2.06667 20.7333 2.13333ZM11 19.3333C11.0667 16.4667 11.6667 13.6667 12.8 11H19.3333V19.3333H11ZM19.3333 29H12.8C11.6667 26.3333 11.0667 23.5333 11 20.6667H19.3333V29ZM20.6667 11H27.2C28.3333 13.6667 28.9333 16.4667 29 19.3333H20.6667V11ZM28.6667 11H36.3333C37.7333 13.5333 38.5333 16.4 38.6667 19.3333H30.3333C30.2667 16.4667 29.6667 13.6667 28.6667 11ZM35.5333 9.66667H28.0667C27.9333 9.33333 27.8 9 27.6 8.73333C27.5333 8.6 27.4667 8.46667 27.4 8.33333C27.2667 8.06667 27.0667 7.73333 26.9333 7.46667C26.8667 7.33333 26.7333 7.13333 26.6667 7C26.4667 6.73333 26.3333 6.46667 26.1333 6.2C26 6.06667 25.9333 5.86667 25.8 5.73333C25.6 5.46667 25.4 5.2 25.2 4.93333C25.0667 4.8 25 4.66667 24.8667 4.53333C24.6 4.2 24.3333 3.86667 24.0667 3.53333C24 3.46667 24 3.4 23.9333 3.33333C23.6 2.93333 23.2667 2.6 22.9333 2.26667C22.8 2.2 22.6667 2.06667 22.6 2C22.4 1.8 22.2 1.66667 22 1.46667C27.4667 2.06667 32.4667 5.06667 35.5333 9.66667ZM19.3333 2.06667V9.66667H13.4C14.8667 6.73333 16.8667 4.13333 19.3333 2.06667ZM18 1.46667C15.4 3.73333 13.3333 6.53333 11.9333 9.66667H4.46667C7.53333 5.06667 12.5333 2.06667 18 1.46667ZM4.46667 30.3333H11.9333C12.0667 30.6667 12.2 31 12.4 31.2667C12.4667 31.4 12.5333 31.5333 12.6 31.6667C12.7333 31.9333 12.9333 32.2667 13.0667 32.5333C13.1333 32.6667 13.2667 32.8667 13.3333 33C13.5333 33.2667 13.6667 33.5333 13.8667 33.8C14 33.9333 14.0667 34.1333 14.2 34.2667C14.4 34.5333 14.6 34.8 14.8 35.0667C14.9333 35.2 15 35.3333 15.1333 35.4667C15.4 35.8 15.6667 36.1333 15.9333 36.4C16 36.4667 16 36.5333 16.0667 36.6C16.4 36.9333 16.7333 37.3333 17.0667 37.6667C17.2 37.8 17.2667 37.8667 17.4 38C17.6 38.2 17.8 38.3333 18 38.5333C12.5333 37.9333 7.53333 34.9333 4.46667 30.3333Z" fill="#FF0081"></path>
                                            <path d="M27.9999 26.0001H29.3333C29.7333 26.0001 29.9999 25.7334 29.9999 25.3334C29.9999 24.9334 29.7333 24.6667 29.3333 24.6667H27.9999C27.5999 24.6667 27.3333 24.9334 27.3333 25.3334C27.3333 25.7334 27.5999 26.0001 27.9999 26.0001Z" fill="#FF0081"></path>
                                        </svg>