<svg xmlns:xlink="http://www.w3.org/1999/xlink" width="40" height="35" viewBox="0 0 40 35" fill="none" xmlns="http://www.w3.org/2000/svg">
                                            <path d="M37.3158 6.28871H26.5558V3.35C26.5558 1.50258 25.0603 0 23.2223 0H16.7777C14.94 0 13.4445 1.50258 13.4445 3.35V6.28871H2.68419C1.21323 6.28871 0 7.53419 0 9.00516V17.6629C0 17.9484 0.18 18.2023 0.448387 18.2958L1.69355 18.73L1.66677 32.1219C1.66677 33.62 2.87097 34.8384 4.35097 34.8384H35.649C37.129 34.8384 38.3332 33.6197 38.3332 32.1219V18.7242L39.5532 18.2955C39.8206 18.2016 40 17.9477 40 17.6632V9.00516C40 7.53419 38.7868 6.28871 37.3158 6.28871ZM14.7777 3.35C14.7777 2.24161 15.6748 1.34 16.7777 1.34H23.2223C24.3252 1.34 25.2223 2.24161 25.2223 3.35V6.28871H14.7777V3.35ZM37 32.1223C37 32.8813 36.3939 33.4987 35.649 33.4987H4.35097C3.60613 33.4987 3 32.8813 3 32.1235L3.02581 19.1952L16.5352 23.9065V25.6406C16.5352 26.0106 16.8335 26.3106 17.2019 26.3106H22.9458C23.3139 26.3106 23.6126 26.0106 23.6126 25.6406V23.899L37 19.1929V32.1223ZM17.8684 24.9703V21.3042H22.2787V24.9703H17.8684ZM38.6668 17.1874L23.6123 22.4794V20.6342C23.6123 20.2642 23.3139 19.9642 22.9455 19.9642H17.2019C16.8339 19.9642 16.5352 20.2642 16.5352 20.6342V22.4877L1.33323 17.1865V9.00516C1.33323 8.26355 1.94032 7.62871 2.68419 7.62871H37.3158C38.06 7.62871 38.6668 8.26258 38.6668 9.00516V17.1874Z" fill="#FF0081"></path>
                                        </svg>