<svg xmlns:xlink="http://www.w3.org/1999/xlink" width="40" height="34" viewBox="0 0 40 34" fill="none" xmlns="http://www.w3.org/2000/svg">
                                            <path d="M36.4897 27.5283L39.949 15.6817C40.0054 15.483 40.0151 15.274 39.9774 15.0709C39.9397 14.8678 39.8556 14.6762 39.7317 14.511C39.6078 14.3458 39.4474 14.2114 39.263 14.1183C39.0786 14.0253 38.8752 13.9761 38.6687 13.9745H17.4094L15.6035 7.79429C15.4807 7.37977 15.2276 7.01587 14.8816 6.75656C14.5357 6.49725 14.1154 6.35635 13.6831 6.35474H11.2963C11.1194 6.35474 10.9498 6.42499 10.8247 6.55006C10.6997 6.67512 10.6294 6.84474 10.6294 7.0216C10.6294 7.19847 10.6997 7.36809 10.8247 7.49315C10.9498 7.61821 11.1194 7.68847 11.2963 7.68847H13.683C13.8271 7.689 13.9672 7.73594 14.0825 7.82233C14.1978 7.90872 14.2822 8.02997 14.3232 8.16811C14.3361 8.20552 16.2628 14.8105 16.2737 14.8429L19.9695 27.5281C20.0098 27.6666 20.094 27.7883 20.2095 27.8749C20.3249 27.9615 20.4653 28.0083 20.6096 28.0083H35.8495C35.9938 28.0083 36.1342 27.9616 36.2496 27.875C36.365 27.7885 36.4493 27.6668 36.4897 27.5283V27.5283ZM21.1098 26.6746L17.7985 15.3082H38.6687L35.3497 26.6746H21.1098Z" fill="#FF0081"></path>
                                            <path d="M31.9692 30.6757C31.9757 31.3789 32.2596 32.0511 32.7592 32.5461C33.2587 33.041 33.9335 33.3187 34.6367 33.3187C35.34 33.3187 36.0147 33.041 36.5143 32.546C37.0138 32.0511 37.2977 31.3789 37.3042 30.6757C37.2977 29.9725 37.0138 29.3003 36.5142 28.8053C36.0147 28.3104 35.3399 28.0327 34.6367 28.0327C33.9334 28.0327 33.2587 28.3104 32.7591 28.8054C32.2596 29.3003 31.9757 29.9725 31.9692 30.6757V30.6757ZM34.6367 29.342C34.9871 29.3471 35.3214 29.4898 35.5674 29.7394C35.8133 29.989 35.9512 30.3253 35.9512 30.6758C35.9512 31.0262 35.8133 31.3625 35.5673 31.6121C35.3213 31.8616 34.987 32.0044 34.6366 32.0095C34.2863 32.0044 33.952 31.8616 33.706 31.612C33.46 31.3625 33.3221 31.0261 33.3221 30.6757C33.3221 30.3253 33.46 29.9889 33.706 29.7394C33.952 29.4898 34.2863 29.3471 34.6367 29.342V29.342Z" fill="#FF0081"></path>
                                            <path d="M18.6318 30.6757C18.6383 31.3789 18.9222 32.0511 19.4218 32.5461C19.9213 33.041 20.5961 33.3187 21.2993 33.3187C22.0026 33.3187 22.6773 33.041 23.1769 32.546C23.6764 32.0511 23.9603 31.3789 23.9668 30.6757C23.9603 29.9725 23.6764 29.3003 23.1768 28.8053C22.6773 28.3104 22.0025 28.0327 21.2993 28.0327C20.596 28.0327 19.9213 28.3104 19.4217 28.8054C18.9222 29.3003 18.6383 29.9725 18.6318 30.6757V30.6757ZM21.2993 29.342C21.6497 29.3471 21.984 29.4898 22.23 29.7394C22.4759 29.989 22.6138 30.3253 22.6138 30.6758C22.6138 31.0262 22.4759 31.3625 22.2299 31.6121C21.9839 31.8616 21.6496 32.0044 21.2992 32.0095C20.9489 32.0044 20.6146 31.8616 20.3686 31.612C20.1226 31.3625 19.9847 31.0261 19.9847 30.6757C19.9847 30.3253 20.1226 29.9889 20.3686 29.7394C20.6146 29.4898 20.9489 29.3471 21.2993 29.342V29.342Z" fill="#FF0081"></path>
                                            <path d="M17.6896 23.7939L1.3302 23.7734L3.88174 19.6859H16.1025C16.2794 19.6859 16.449 19.6156 16.5741 19.4906C16.6991 19.3655 16.7694 19.1959 16.7694 19.019C16.7694 18.8422 16.6991 18.6725 16.5741 18.5475C16.449 18.4224 16.2794 18.3522 16.1025 18.3522H4.17871V1.33373H25.2784V4.3613C25.281 4.53645 25.3524 4.70355 25.4772 4.82649C25.602 4.94944 25.7701 5.01835 25.9453 5.01835C26.1205 5.01835 26.2886 4.94944 26.4134 4.82649C26.5382 4.70355 26.6096 4.53645 26.6122 4.3613V1.33373C26.6118 0.980113 26.4712 0.641078 26.2211 0.391031C25.9711 0.140984 25.6321 0.00035309 25.2784 0H4.17871C3.82509 0.00035309 3.48606 0.140984 3.23601 0.391031C2.98596 0.641078 2.84533 0.980113 2.84498 1.33373V18.8283L0.200954 23.0639C0.0753721 23.2679 0.00616413 23.5015 0.000393038 23.741C-0.00537805 23.9805 0.0524943 24.2173 0.168104 24.4271C0.283714 24.6369 0.452922 24.8123 0.65846 24.9354C0.863998 25.0584 1.09851 25.1248 1.33805 25.1276H17.6896C17.864 25.1239 18.0301 25.0521 18.1522 24.9274C18.2742 24.8027 18.3426 24.6352 18.3426 24.4607C18.3426 24.2863 18.2742 24.1187 18.1521 23.9941C18.0301 23.8694 17.864 23.7976 17.6896 23.7939Z" fill="#FF0081"></path>
                                            <path d="M26.6336 11.4507C26.5126 11.5766 26.4458 11.7449 26.4475 11.9194C26.4493 12.094 26.5194 12.261 26.6429 12.3844C26.7663 12.5079 26.9333 12.578 27.1079 12.5797C27.2824 12.5814 27.4507 12.5146 27.5766 12.3936C27.8308 12.1516 28.1684 12.0166 28.5194 12.0166C28.8704 12.0166 29.208 12.1516 29.4622 12.3936C29.5242 12.4555 29.5977 12.5047 29.6786 12.5382C29.7595 12.5717 29.8462 12.5889 29.9337 12.5889C30.0213 12.5889 30.108 12.5717 30.1889 12.5382C30.2698 12.5047 30.3433 12.4555 30.4052 12.3936C30.4671 12.3317 30.5163 12.2582 30.5498 12.1773C30.5833 12.0964 30.6005 12.0097 30.6005 11.9221C30.6005 11.8346 30.5833 11.7479 30.5498 11.667C30.5163 11.5861 30.4671 11.5126 30.4052 11.4506C29.9033 10.9538 29.2256 10.675 28.5194 10.675C27.8132 10.6751 27.1355 10.9538 26.6336 11.4507V11.4507Z" fill="#FF0081"></path>
                                            <path d="M31.8205 10.7013C31.9515 10.6992 32.0789 10.6588 32.1872 10.5852C32.2955 10.5116 32.3799 10.4079 32.43 10.2869C32.4802 10.1659 32.4938 10.0329 32.4693 9.90424C32.4447 9.7756 32.3831 9.65694 32.292 9.56288C31.2912 8.56292 29.9343 8.00122 28.5195 8.00122C27.1048 8.00122 25.7479 8.56292 24.7471 9.56288C24.6261 9.68876 24.5593 9.85706 24.5611 10.0316C24.5628 10.2062 24.6329 10.3732 24.7564 10.4966C24.8798 10.6201 25.0468 10.6902 25.2214 10.6919C25.396 10.6936 25.5643 10.6268 25.6901 10.5058C26.4433 9.76064 27.4601 9.34267 28.5196 9.34269C29.5791 9.3427 30.5959 9.7607 31.349 10.5059C31.4109 10.5679 31.4844 10.6171 31.5653 10.6506C31.6462 10.6841 31.7329 10.7013 31.8205 10.7013V10.7013Z" fill="#FF0081"></path>
                                            <path d="M22.8597 8.61922C22.9216 8.68116 22.9951 8.7303 23.076 8.76382C23.1569 8.79734 23.2436 8.8146 23.3312 8.8146C23.4187 8.8146 23.5055 8.79734 23.5864 8.76382C23.6673 8.7303 23.7408 8.68116 23.8027 8.61922C25.0583 7.37711 26.7532 6.68043 28.5194 6.68044C30.2856 6.68046 31.9805 7.37717 33.2362 8.6193C33.3613 8.74388 33.5308 8.81372 33.7074 8.81351C33.8839 8.8133 34.0532 8.74306 34.1781 8.61819C34.303 8.49331 34.3732 8.32401 34.3734 8.14743C34.3736 7.97084 34.3037 7.80138 34.1791 7.67623C32.6775 6.17627 30.6419 5.33374 28.5194 5.33374C26.397 5.33374 24.3613 6.17627 22.8597 7.67623C22.7977 7.73814 22.7486 7.81164 22.7151 7.89254C22.6816 7.97344 22.6643 8.06015 22.6643 8.14773C22.6643 8.2353 22.6816 8.32201 22.7151 8.40291C22.7486 8.48381 22.7977 8.55732 22.8597 8.61922V8.61922Z" fill="#FF0081"></path>
                                        </svg>