<svg xmlns:xlink="http://www.w3.org/1999/xlink" width="39" height="39" viewBox="0 0 39 39" fill="none" xmlns="http://www.w3.org/2000/svg">
                                            <g clip-path="url(#clip0_318:379)" fill="none">
                                                <path d="M38.4284 2.44226H37.2073H20.0733V0.572405C20.0733 0.256285 19.817 0 19.5009 0C19.1848 0 18.9285 0.256285 18.9285 0.572405V2.44226H1.79451H0.573381C0.257261 2.44226 0.000976562 2.69855 0.000976562 3.01467C0.000976562 3.33079 0.257261 3.58707 0.573381 3.58707H1.22211V26.8267C1.22211 27.8157 2.02668 28.6202 3.01564 28.6202H10.7985L9.93975 31.5399C9.93945 31.541 9.93914 31.542 9.93884 31.5431L7.96152 38.2659C7.87238 38.5692 8.04586 38.8874 8.34916 38.9766C8.40312 38.9924 8.45738 39 8.51096 39C8.75831 39 8.98651 38.8383 9.05985 38.5889L10.9144 32.2836H28.0874L29.9419 38.5889C30.0153 38.8384 30.2435 39 30.4908 39C30.5443 39 30.5988 38.9924 30.6526 38.9766C30.9559 38.8874 31.1295 38.5692 31.0403 38.2659L29.063 31.5431C29.0627 31.542 29.0623 31.541 29.062 31.5399L28.2033 28.6202H35.9862C36.9751 28.6202 37.7797 27.8157 37.7797 26.8267V3.58707H38.4284C38.7445 3.58707 39.0008 3.33079 39.0008 3.01467C39.0008 2.69855 38.7445 2.44226 38.4284 2.44226V2.44226ZM27.7507 31.1388H11.2511L11.9919 28.6202H27.0099L27.7507 31.1388V31.1388ZM36.6349 26.8267C36.6349 27.1844 36.3439 27.4754 35.9862 27.4754H27.4479C27.4472 27.4754 27.4466 27.4754 27.4459 27.4754H11.5568C11.5556 27.4754 11.5544 27.4754 11.5532 27.4754H3.01564C2.65793 27.4754 2.36692 27.1844 2.36692 26.8267V3.58707H36.6349V26.8267V26.8267Z" fill="#FF0081"></path>
                                                <path d="M13.3472 15.6848L6.27337 22.7588C6.04983 22.9823 6.04983 23.3447 6.27337 23.5682C6.3851 23.6799 6.53164 23.7359 6.6781 23.7359C6.82456 23.7359 6.97109 23.68 7.08283 23.5682L14.1567 16.4943C14.4096 16.2414 14.8212 16.2413 15.0741 16.4943L18.8423 20.2625C19.181 20.6013 19.6315 20.7878 20.1105 20.7878C20.5896 20.7878 21.04 20.6012 21.3788 20.2625L31.7494 9.89184V14.005C31.7494 14.3211 32.0057 14.5774 32.3218 14.5774C32.638 14.5774 32.8942 14.3211 32.8942 14.005V8.51013C32.8942 8.49121 32.8932 8.47228 32.8914 8.45335C32.8906 8.44526 32.889 8.43732 32.888 8.42931C32.8865 8.41885 32.8852 8.40832 32.8832 8.39794C32.8813 8.38863 32.8787 8.37963 32.8765 8.37047C32.8742 8.36154 32.8723 8.35253 32.8696 8.34368C32.8668 8.33467 32.8635 8.32605 32.8604 8.3172C32.8572 8.30834 32.8542 8.29949 32.8507 8.29079C32.8472 8.28255 32.8432 8.27461 32.8394 8.26659C32.8352 8.25774 32.8313 8.24881 32.8267 8.24011C32.8225 8.23225 32.8177 8.22485 32.8132 8.21722C32.8081 8.20882 32.8034 8.20027 32.7979 8.19211C32.7922 8.18356 32.7859 8.17554 32.7797 8.16738C32.7746 8.16066 32.77 8.15372 32.7646 8.14723C32.7406 8.118 32.7138 8.09121 32.6846 8.06732C32.6782 8.06206 32.6715 8.05755 32.665 8.05267C32.6566 8.04633 32.6483 8.03985 32.6396 8.03405C32.6317 8.02878 32.6235 8.0242 32.6154 8.01932C32.6075 8.01458 32.5997 8.00962 32.5915 8.0052C32.5833 8.00077 32.5748 7.99703 32.5664 7.99306C32.5579 7.98902 32.5496 7.98482 32.5408 7.98116C32.5326 7.9778 32.5243 7.97505 32.5161 7.97207C32.5068 7.96872 32.4975 7.96513 32.4879 7.96223C32.4797 7.95979 32.4714 7.95795 32.4631 7.95589C32.4533 7.95337 32.4436 7.95063 32.4336 7.94864C32.4243 7.94681 32.4149 7.94574 32.4056 7.94437C32.3964 7.94299 32.3875 7.94132 32.3782 7.9404C32.3617 7.9388 32.3452 7.93811 32.3287 7.93788C32.3264 7.93788 32.3242 7.9375 32.3219 7.9375H26.8268C26.5107 7.9375 26.2544 8.19378 26.2544 8.50991C26.2544 8.82603 26.5107 9.08231 26.8268 9.08231H30.94L20.5692 19.453C20.4467 19.5755 20.2839 19.643 20.1105 19.643C19.9372 19.643 19.7743 19.5756 19.6518 19.453L15.8836 15.6848C15.1843 14.9856 14.0465 14.9856 13.3472 15.6848V15.6848Z" fill="#FF0081"></path>
                                            </g>
                                            <defs>
                                                <clipPath id="clip0_318:379">
                                                    <rect width="39" height="39" fill="white"></rect>
                                                </clipPath>
                                            </defs>
                                        </svg>