<svg xmlns:xlink="http://www.w3.org/1999/xlink" width="39" height="39" viewBox="0 0 39 39" fill="none" xmlns="http://www.w3.org/2000/svg">
                                            <path d="M38.8933 5.75536L39 4.11999L35.0884 3.87031L34.8356 0L33.1829 0.105618L33.462 4.38097L32.2636 5.56673L32.0782 2.72825L30.4254 2.83387L30.7045 7.1093L29.679 8.12402C26.5274 5.359 22.3841 3.67714 17.8505 3.67714C8.00781 3.67714 0 11.5999 0 21.3384C0 31.0769 8.00781 39 17.8505 39C27.693 39 35.7 31.0769 35.7 21.3384C35.7 16.6739 33.8622 12.4266 30.8664 9.26632L31.9287 8.21507L36.1359 8.48361L36.2426 6.84824L33.4879 6.67242L34.6861 5.48682L38.8933 5.75536ZM34.044 21.3384C34.044 30.1737 26.7793 37.3615 17.8505 37.3615C8.92081 37.3615 1.65607 30.1737 1.65607 21.3384C1.65607 12.5036 8.92081 5.31578 17.8505 5.31578C21.9272 5.31578 25.6566 6.81481 28.5064 9.28431L26.1646 11.6014C23.9185 9.72079 21.0161 8.58485 17.8505 8.58485C10.7427 8.58485 4.96016 14.3062 4.96016 21.3384C4.96016 28.3711 10.7427 34.0924 17.8505 34.0924C24.9575 34.0924 30.74 28.3711 30.74 21.3384C30.74 18.027 29.4575 15.0066 27.3586 12.7371L29.6951 10.4253C32.3914 13.2883 34.044 17.1257 34.044 21.3384ZM17.8366 22.1584L22.8016 17.2458C23.7397 18.355 24.3056 19.7822 24.3056 21.3383C24.3056 24.8603 21.41 27.7257 17.8505 27.7257C14.2908 27.7257 11.3944 24.8603 11.3944 21.3383C11.3944 17.8164 14.2908 14.9513 17.8505 14.9513C19.2412 14.9513 20.5294 15.3901 21.5844 16.1332L16.6658 20.9999L17.8366 22.1584ZM22.7688 14.9613C21.4034 13.9279 19.6983 13.3128 17.8505 13.3128C13.3771 13.3128 9.7383 16.9133 9.7383 21.3384C9.7383 25.764 13.3771 29.3644 17.8505 29.3644C22.3229 29.3644 25.9617 25.764 25.9617 21.3384C25.9617 19.3305 25.2125 17.4926 23.9762 16.0837L26.1868 13.8964C27.9864 15.8681 29.0838 18.4788 29.0838 21.3384C29.0838 27.4674 24.0444 32.4539 17.8504 32.4539C11.6554 32.4539 6.61615 27.4675 6.61615 21.3384C6.61615 15.2095 11.6555 10.2234 17.8504 10.2234C20.5595 10.2234 23.0478 11.1773 24.9901 12.7634L22.7688 14.9613Z" fill="#FF0081"></path>
                                        </svg>