<svg xmlns:xlink="http://www.w3.org/1999/xlink" width="39" height="39" viewBox="0 0 39 39" fill="none" xmlns="http://www.w3.org/2000/svg">
                        <path d="M27.3882 26.1405L39 15.1085L31.7571 7.48486L27.3882 26.1405ZM36.3741 15.041L30.6141 20.5124L32.781 11.2596L36.3741 15.041Z" fill="#FF0081"></path>
                        <path d="M30.6043 6.70443L30.5631 6.6944L20.2732 4.28467L20.2354 4.44527L26.5312 24.0973L30.6043 6.70443ZM22.9466 6.81904L28.3715 8.08916L26.2523 17.1376L22.9466 6.81904Z" fill="#FF0081"></path>
                        <path d="M8.67334 7.39597L9.04371 8.55237L25.4082 24.9168L25.4186 24.8854L18.7783 4.1582L8.67334 7.39597ZM11.5457 8.42653L17.5757 6.49513L21.3283 18.2103L11.5457 8.42653Z" fill="#FF0081"></path>
                        <path d="M26.204 27.3949L26.2597 27.3381L26.2307 27.3091L7.50261 8.58105L7.48474 8.59923L0 16.084L18.757 34.841L26.204 27.3949ZM7.50261 11.2083L23.6325 27.3381L18.757 32.2139L2.62684 16.084L7.50261 11.2083Z" fill="#FF0081"></path>
                        <path d="M18.8154 25.8291C19.7132 25.8291 20.441 26.5572 20.441 27.4547C20.441 28.3522 19.7132 29.0803 18.8154 29.0803C17.9175 29.0803 17.1897 28.3522 17.1897 27.4547C17.1897 26.5572 17.9175 25.8291 18.8154 25.8291Z" fill="#FF0081"></path>
                    </svg>