<svg xmlns:xlink="http://www.w3.org/1999/xlink" width="40" height="40" viewBox="0 0 40 40" fill="none" xmlns="http://www.w3.org/2000/svg">
                                                <path d="M22.7079 21.293C22.889 20.9133 22.9883 20.4998 22.9993 20.0792C23.0103 19.6587 22.9328 19.2405 22.7717 18.8518C22.6107 18.4632 22.3698 18.1127 22.0645 17.8232C21.7593 17.5336 21.3967 17.3115 21.0001 17.1711V10.9993C21.0001 10.7341 20.8947 10.4797 20.7072 10.2922C20.5196 10.1046 20.2653 9.99927 20.0001 9.99927C19.7349 9.99927 19.4805 10.1046 19.293 10.2922C19.1054 10.4797 19.0001 10.7341 19.0001 10.9993V17.1711C18.6165 17.3073 18.2647 17.5201 17.966 17.7965C17.6673 18.0729 17.428 18.4073 17.2626 18.7791C17.0972 19.151 17.0092 19.5526 17.0039 19.9596C16.9987 20.3665 17.0763 20.7703 17.232 21.1463C17.3878 21.5223 17.6184 21.8627 17.9098 22.1468C18.2013 22.4308 18.5475 22.6526 18.9274 22.7986C19.3073 22.9446 19.713 23.0118 20.1196 22.9961C20.5263 22.9803 20.9256 22.882 21.293 22.7071L26.293 27.7071C26.4815 27.8901 26.7344 27.9916 26.9971 27.9897C27.2597 27.9878 27.5111 27.8826 27.6969 27.6968C27.8826 27.5111 27.9878 27.2597 27.9897 26.997C27.9916 26.7343 27.8901 26.4815 27.7071 26.293L22.7079 21.293ZM20.0001 21C19.8023 21 19.609 20.9414 19.4445 20.8315C19.2801 20.7216 19.1519 20.5655 19.0762 20.3827C19.0005 20.2 18.9807 19.9989 19.0193 19.805C19.0579 19.611 19.1531 19.4328 19.293 19.2929C19.4328 19.1531 19.611 19.0578 19.805 19.0193C19.999 18.9807 20.2 19.0005 20.3828 19.0762C20.5655 19.1519 20.7217 19.28 20.8315 19.4445C20.9414 19.6089 21.0001 19.8023 21.0001 20C20.9999 20.2652 20.8944 20.5194 20.707 20.7069C20.5195 20.8944 20.2652 20.9998 20.0001 21Z" fill="#FF0081"></path>
                                                <path d="M20 4C11.1633 4 4 11.1633 4 20C4 28.8367 11.1633 36 20 36C28.8367 36 36 28.8367 36 20C36 11.1633 28.8367 4 20 4ZM29.8992 29.8992C27.6088 32.1895 24.5952 33.6147 21.3718 33.9321C18.1484 34.2495 14.9147 33.4393 12.2217 31.6398C9.5286 29.8402 7.54283 27.1625 6.6027 24.063C5.66258 20.9635 5.82626 17.6338 7.06587 14.6414C8.30547 11.6491 10.5443 9.17906 13.4009 7.65232C16.2575 6.12557 19.555 5.63654 22.7318 6.26855C25.9085 6.90056 28.7678 8.61451 30.8225 11.1184C32.8772 13.6222 34.0001 16.761 34 20C34.0051 21.8392 33.6452 23.6612 32.9413 25.3604C32.2374 27.0596 31.2034 28.6023 29.8992 29.8992V29.8992Z" fill="#FF0081"></path>
                                                <path d="M20 0C8.95391 0 0 8.95391 0 20C0 31.0461 8.95391 40 20 40C31.0461 40 40 31.0461 40 20C40 8.95391 31.0461 0 20 0ZM32.7281 32.7281C29.5717 35.8752 25.3567 37.7343 20.9044 37.9433C16.452 38.1523 12.0814 36.6961 8.64406 33.8586C5.20672 31.0211 2.94895 27.0055 2.31067 22.5942C1.67239 18.1829 2.69934 13.692 5.1914 9.99653C7.68347 6.30107 11.4621 3.6658 15.7911 2.60421C20.12 1.54262 24.6892 2.13077 28.6082 4.25405C32.5271 6.37732 35.5152 9.88362 36.9902 14.0897C38.4652 18.2958 38.3213 22.9004 36.5867 27.0062C35.6829 29.1453 34.3725 31.0885 32.7281 32.7281V32.7281Z" fill="#FF0081"></path>
                                            </svg>